<?xml version="1.0" encoding="UTF-8" standalone="no"?>
<!-- Created with Inkscape (http://www.inkscape.org/) -->

<svg
   width="13.229166mm"
   height="13.229163mm"
   viewBox="0 0 13.229166 13.229163"
   version="1.1"
   id="svg1"
   xml:space="preserve"
   xmlns:inkscape="http://www.inkscape.org/namespaces/inkscape"
   xmlns:sodipodi="http://sodipodi.sourceforge.net/DTD/sodipodi-0.dtd"
   xmlns:xlink="http://www.w3.org/1999/xlink"
   xmlns="http://www.w3.org/2000/svg"
   xmlns:svg="http://www.w3.org/2000/svg"><sodipodi:namedview
     id="namedview1"
     pagecolor="#ffffff"
     bordercolor="#000000"
     borderopacity="0.25"
     inkscape:showpageshadow="2"
     inkscape:pageopacity="0.0"
     inkscape:pagecheckerboard="0"
     inkscape:deskcolor="#d1d1d1"
     inkscape:document-units="mm"><inkscape:page
       x="-1.5486395e-07"
       y="3.1227455e-06"
       width="13.229166"
       height="13.229163"
       id="page3"
       margin="0"
       bleed="0" /></sodipodi:namedview><defs
     id="defs1"><linearGradient
       id="swatch1"
       inkscape:swatch="solid"><stop
         style="stop-color:#000000;stop-opacity:1;"
         offset="0"
         id="stop1" /></linearGradient><linearGradient
       inkscape:collect="always"
       xlink:href="#swatch1"
       id="linearGradient11"
       gradientUnits="userSpaceOnUse"
       gradientTransform="matrix(0.09375,0,0,0.09375,98.177063,199.17223)"
       x1="96.445587"
       y1="185.24454"
       x2="128.44559"
       y2="185.24454" /></defs><g
     inkscape:label="Layer 1"
     inkscape:groupmode="layer"
     id="layer1-2"
     transform="translate(-92.219322,-200.03888)"><g
       id="g11"
       transform="matrix(0.40088318,0,0,0.40088318,55.250149,119.84666)"><circle
         style="fill:#323232;fill-opacity:0.75;stroke:url(#linearGradient11);stroke-width:0;stroke-linejoin:round;stroke-dasharray:none;paint-order:stroke fill markers"
         id="path1-3-4"
         cx="108.71883"
         cy="216.53891"
         r="1.5" /><path
         d="m 108.71909,200.03888 c -0.83097,0 -1.49965,0.66919 -1.49965,1.50017 v 2.11821 c -5.96892,0.7063 -10.675681,5.41284 -11.382247,11.38174 h -2.1177 c -0.830997,0 -1.500167,0.66917 -1.500167,1.50016 0,0.831 0.66917,1.49965 1.500167,1.49965 h 2.1177 c 0.706581,5.96903 5.413197,10.67543 11.382247,11.38174 v 2.11822 c 0,0.83099 0.66866,1.50016 1.49965,1.50016 0.831,0 1.50017,-0.66917 1.50017,-1.50016 v -2.08773 c 5.99048,-0.6965 10.71548,-5.42172 11.41171,-11.41223 h 2.08824 c 0.83099,0 1.50017,-0.66866 1.50017,-1.49965 0,-0.83098 -0.66918,-1.50016 -1.50017,-1.50016 h -2.11873 c -0.70647,-5.96859 -5.41266,-10.67499 -11.38122,-11.38174 v -2.11821 c 0,-0.83098 -0.66919,-1.50017 -1.50017,-1.50017 z m -1.49965,6.63112 v 3.86901 c 0,0.83098 0.66868,1.49965 1.49965,1.49965 0.83098,0 1.50017,-0.66867 1.50017,-1.49965 V 206.67 c 4.31797,0.66227 7.70648,4.05098 8.36848,8.369 h -3.8685 c -0.83098,0 -1.50016,0.66918 -1.50016,1.50016 0,0.83099 0.66918,1.49965 1.50016,1.49965 h 3.8685 c -0.66221,4.31785 -4.05063,7.70627 -8.36848,8.36849 v -3.8685 c 0,-0.83099 -0.66917,-1.49965 -1.50017,-1.49965 -0.83099,0 -1.49965,0.66866 -1.49965,1.49965 v 3.8685 c -4.31828,-0.66181 -7.707168,-4.05028 -8.369511,-8.36849 h 3.869531 c 0.83099,0 1.49965,-0.66865 1.49965,-1.49965 0,-0.83099 -0.66866,-1.50016 -1.49965,-1.50016 h -3.869531 c 0.662123,-4.31831 4.051171,-7.70715 8.369511,-8.369 z"
         style="fill:#323232;fill-opacity:0.75;stroke-width:0;stroke-linejoin:round;paint-order:stroke fill markers"
         id="path11" /></g></g></svg>
