<?xml version="1.0" encoding="UTF-8" standalone="no"?>
<!-- Created with Inkscape (http://www.inkscape.org/) -->

<svg
   width="50mm"
   height="49.999996mm"
   viewBox="0 0 50 49.999996"
   version="1.1"
   id="svg1"
   xml:space="preserve"
   xmlns:inkscape="http://www.inkscape.org/namespaces/inkscape"
   xmlns:sodipodi="http://sodipodi.sourceforge.net/DTD/sodipodi-0.dtd"
   xmlns:xlink="http://www.w3.org/1999/xlink"
   xmlns="http://www.w3.org/2000/svg"
   xmlns:svg="http://www.w3.org/2000/svg"><sodipodi:namedview
     id="namedview1"
     pagecolor="#ffffff"
     bordercolor="#000000"
     borderopacity="0.25"
     inkscape:showpageshadow="2"
     inkscape:pageopacity="0.0"
     inkscape:pagecheckerboard="0"
     inkscape:deskcolor="#d1d1d1"
     inkscape:document-units="mm"><inkscape:page
       x="1.7973298e-06"
       y="2.1364376e-06"
       width="50"
       height="49.999996"
       id="page3"
       margin="0"
       bleed="0" /></sodipodi:namedview><defs
     id="defs1"><linearGradient
       id="swatch1"
       inkscape:swatch="solid"><stop
         style="stop-color:#000000;stop-opacity:1;"
         offset="0"
         id="stop1" /></linearGradient><linearGradient
       inkscape:collect="always"
       xlink:href="#swatch1"
       id="linearGradient4"
       gradientUnits="userSpaceOnUse"
       gradientTransform="matrix(0.09375,0,0,0.09375,98.177063,199.17223)"
       x1="96.445587"
       y1="185.24454"
       x2="128.44559"
       y2="185.24454" /></defs><g
     inkscape:label="Layer 1"
     inkscape:groupmode="layer"
     id="layer1-2"
     transform="translate(-0.29832866,-214.25889)"><g
       id="g11"
       style="fill:#323232;fill-opacity:0.75"
       transform="matrix(1.515149,0,0,1.515149,-139.4277,-88.82982)"
       inkscape:export-filename="reload-sign2.svg"
       inkscape:export-xdpi="96"
       inkscape:export-ydpi="96"><circle
         style="fill:#323232;fill-opacity:0.75;stroke:url(#linearGradient4);stroke-width:0;stroke-linejoin:round;stroke-dasharray:none;paint-order:stroke fill markers"
         id="path1-3-4"
         cx="108.71883"
         cy="216.53891"
         r="1.5" /><g
         id="g10"
         style="fill:#323232;fill-opacity:0.75"><path
           d="m 107.21944,200.03888 v 3.61838 c -5.96902,0.70631 -10.67567,5.41275 -11.382247,11.38174 h -3.617867 v 2.99981 h 3.617867 c 0.70658,5.96902 5.413207,10.67543 11.382247,11.38174 v 3.61838 h 2.99982 v -3.58789 c 5.99041,-0.6965 10.71549,-5.42179 11.41171,-11.41223 h 3.58841 V 215.039 h -3.6189 c -0.70647,-5.96858 -5.41267,-10.675 -11.38122,-11.38174 v -3.61838 z m 0,6.63112 v 5.36866 h 2.99982 V 206.67 c 4.31797,0.66227 7.70648,4.05099 8.36848,8.369 h -5.36866 v 2.99981 h 5.36866 c -0.66221,4.3178 -4.05068,7.70628 -8.36848,8.36849 v -5.36815 h -2.99982 v 5.36815 c -4.31827,-0.66181 -7.707169,-4.05029 -8.369511,-8.36849 h 5.369181 V 215.039 h -5.369181 c 0.662133,-4.31838 4.051101,-7.70713 8.369511,-8.369 z"
           style="fill:#323232;fill-opacity:0.75;stroke-width:0;stroke-linejoin:round;paint-order:stroke fill markers"
           id="path10" /></g></g></g></svg>
