<?xml version="1.0" encoding="UTF-8" standalone="no"?>
<!-- Created with Inkscape (http://www.inkscape.org/) -->

<svg
   width="270.93332mm"
   height="270.93335mm"
   viewBox="0 0 270.93332 270.93335"
   version="1.1"
   id="svg1"
   xml:space="preserve"
   xmlns:inkscape="http://www.inkscape.org/namespaces/inkscape"
   xmlns:sodipodi="http://sodipodi.sourceforge.net/DTD/sodipodi-0.dtd"
   xmlns:xlink="http://www.w3.org/1999/xlink"
   xmlns="http://www.w3.org/2000/svg"
   xmlns:svg="http://www.w3.org/2000/svg"><sodipodi:namedview
     id="namedview1"
     pagecolor="#ffffff"
     bordercolor="#000000"
     borderopacity="0.25"
     inkscape:showpageshadow="2"
     inkscape:pageopacity="0.0"
     inkscape:pagecheckerboard="0"
     inkscape:deskcolor="#d1d1d1"
     inkscape:document-units="mm" /><defs
     id="defs1"><inkscape:path-effect
       effect="fillet_chamfer"
       id="path-effect7"
       is_visible="true"
       lpeversion="1"
       nodesatellites_param="F,0,0,1,0,7,0,1 @ F,0,0,1,0,10,0,1 @ F,0,0,1,0,7,0,1 @ F,0,0,1,0,10,0,1 @ F,0,0,1,0,7,0,1 @ F,0,0,1,0,10,0,1"
       radius="0"
       unit="px"
       method="auto"
       mode="F"
       chamfer_steps="1"
       flexible="false"
       use_knot_distance="true"
       apply_no_radius="true"
       apply_with_radius="true"
       only_selected="false"
       hide_knots="false" /><inkscape:path-effect
       effect="fillet_chamfer"
       id="path-effect6"
       is_visible="true"
       lpeversion="1"
       nodesatellites_param="F,0,0,1,0,6,0,1 @ F,0,0,1,0,7,0,1 @ F,0,0,1,0,6,0,1 @ F,0,0,1,0,7,0,1 @ F,0,0,1,0,6,0,1 @ F,0,0,1,0,7,0,1 @ F,0,0,1,0,6,0,1 @ F,0,0,1,0,7,0,1 @ F,0,0,1,0,6,0,1 @ F,0,0,1,0,7,0,1"
       radius="0"
       unit="px"
       method="auto"
       mode="F"
       chamfer_steps="1"
       flexible="false"
       use_knot_distance="true"
       apply_no_radius="true"
       apply_with_radius="true"
       only_selected="false"
       hide_knots="false" /><linearGradient
       id="swatch1"
       inkscape:swatch="solid"><stop
         style="stop-color:#000000;stop-opacity:1;"
         offset="0"
         id="stop1" /></linearGradient></defs><g
     inkscape:label="Layer 1"
     inkscape:groupmode="layer"
     id="layer1"
     transform="translate(64.57612,-799.33958)"><rect
       style="fill:#48c648;fill-opacity:1;stroke-width:0;stroke-linejoin:round;stroke-dasharray:none;paint-order:stroke fill markers"
       id="rect6"
       width="270.93332"
       height="270.93332"
       x="-64.576118"
       y="799.3396" /><path
       id="path6-4"
       style="fill:#319b31;fill-opacity:1;stroke-width:0;stroke-linejoin:round;paint-order:stroke fill markers"
       inkscape:transform-center-x="0.33147233"
       inkscape:transform-center-y="1.2263671"
       transform="matrix(0.27093326,0,0,0.27093326,153.41392,624.8741)"
       d="m -463.1383,1089.2348 -20.35385,1.0018 a 19.853172,19.853172 157.76029 0 0 -12.22111,4.9972 l -6.96166,6.1943 a 4.1357176,4.1357176 13.760263 0 1 -6.61486,-1.6199 l -7.24243,-19.0481 a 19.85332,19.85332 49.760371 0 0 -8.52917,-10.0787 l -8.04235,-4.7069 a 4.1357321,4.1357321 85.760386 0 1 -0.50347,-6.7917 l 15.87778,-12.7741 a 19.853253,19.853253 121.76034 0 0 6.9498,-11.2262 l 1.99119,-9.1032 a 4.1357274,4.1357274 157.76032 0 1 6.30371,-2.5776 l 17.05544,11.1533 a 19.853266,19.853266 13.760319 0 0 12.82438,3.1405 l 9.27298,-0.9193 a 4.1357251,4.1357251 49.760329 0 1 4.39938,5.1987 l -5.33695,19.6672 a 19.853208,19.853208 85.760287 0 0 0.97611,13.1672 l 3.73981,8.535 a 4.135716,4.135716 121.7603 0 1 -3.58473,5.7905 z"
       inkscape:path-effect="#path-effect6"
       inkscape:original-d="m -457.14555,1088.9399 -33.33814,1.6408 -16.67372,14.8358 -11.86257,-31.1994 -19.26209,-11.2732 26.00666,-20.9231 4.76909,-21.8029 27.93557,18.2682 22.20956,-2.2018 -8.74154,32.2135 z" /><ellipse
       style="fill:#35ab35;fill-opacity:1;stroke-width:0;stroke-linejoin:round;stroke-dasharray:none;paint-order:stroke fill markers"
       id="path6"
       cx="126.42429"
       cy="874.78711"
       rx="6.0195479"
       ry="4.642457" /><path
       id="path7"
       style="fill:#257625;fill-opacity:1;stroke-width:0;stroke-linejoin:round;paint-order:stroke fill markers"
       inkscape:transform-center-x="0.042970613"
       inkscape:transform-center-y="-1.7241844"
       transform="matrix(0.27093326,0,0,0.27093326,-45.675501,543.30769)"
       d="m 404.11325,1360.1618 -36.52356,-7.1395 a 43.635529,43.635529 23.96808 0 1 -17.81364,-7.9192 l -29.76958,-22.3319 a 6.5065412,6.5065412 83.968086 0 1 -1.00159,-9.4787 l 24.44474,-28.0606 a 43.635535,43.635535 143.96809 0 1 15.7651,-11.4675 l 34.2248,-14.6152 a 6.5065428,6.5065428 23.968089 0 1 8.70958,3.8719 l 12.07883,35.2001 a 43.635514,43.635514 83.968093 0 1 2.04854,19.3867 l -4.45522,36.9471 a 6.5065447,6.5065447 143.96809 0 1 -7.708,5.6068 z"
       inkscape:path-effect="#path-effect7"
       inkscape:original-d="m 410.98323,1361.5047 -53.20779,-10.4008 -43.36854,-32.5333 35.61127,-40.8789 49.85894,-21.2916 17.59653,51.2797 z" /><rect
       style="fill:#2e912e;fill-opacity:1;stroke-width:0;stroke-linejoin:round;stroke-dasharray:none;paint-order:stroke fill markers"
       id="rect7"
       width="13.01977"
       height="13.01977"
       x="18.425121"
       y="966.35461"
       ry="5.2579842" /><use
       id="use7"
       inkscape:spray-origin="#rect7"
       xlink:href="#rect7"
       transform="matrix(0.31898832,-0.91934029,0.91934029,0.31898832,-723.1624,636.99987)" /><use
       id="use26"
       inkscape:spray-origin="#rect7"
       xlink:href="#rect7"
       transform="matrix(0.29507637,-0.94466245,0.94466245,0.29507637,-750.62033,699.82821)" /><use
       id="use27"
       inkscape:spray-origin="#rect7"
       xlink:href="#rect7"
       transform="matrix(-0.5625357,-0.78096287,0.78096287,-0.5625357,-655.12069,1569.7804)" /><use
       id="use28"
       inkscape:spray-origin="#rect7"
       xlink:href="#rect7"
       transform="matrix(-0.59405806,0.7170913,-0.7170913,-0.59405806,690.13535,1378.2871)" /><use
       id="use29"
       inkscape:spray-origin="#rect7"
       xlink:href="#rect7"
       transform="matrix(0.9767673,0.20633199,-0.20633199,0.9767673,236.86589,-113.51367)" /><use
       id="use30"
       inkscape:spray-origin="#rect7"
       xlink:href="#rect7"
       transform="matrix(-0.02994607,0.92612604,-0.92612604,-0.02994607,862.76944,918.8221)" /><use
       id="use31"
       inkscape:spray-origin="#rect7"
       xlink:href="#rect7"
       transform="matrix(-0.49709227,0.81540945,-0.81540945,-0.49709227,866.16618,1478.8195)" /><use
       id="use32"
       inkscape:spray-origin="#rect7"
       xlink:href="#rect7"
       transform="matrix(1.0622833,-0.04951098,0.04951098,1.0622833,50.804806,-100.83083)" /><use
       id="use33"
       inkscape:spray-origin="#rect7"
       xlink:href="#rect7"
       transform="matrix(0.43504882,-0.85717755,0.85717755,0.43504882,-874.5308,619.81407)" /><use
       id="use34"
       inkscape:spray-origin="#rect7"
       xlink:href="#rect7"
       transform="matrix(0.90504495,0.17567108,-0.17567108,0.90504495,324.10243,155.53463)" /><use
       id="use35"
       inkscape:spray-origin="#path7"
       xlink:href="#path7"
       transform="matrix(0.93409216,-0.51341819,0.51341819,0.93409216,-358.51965,40.044128)" /><use
       id="use36"
       inkscape:spray-origin="#path7"
       xlink:href="#path7"
       transform="matrix(0.75123815,-0.80214482,0.80214482,0.75123815,-749.46781,389.84079)" /><use
       id="use38"
       inkscape:spray-origin="#path6-4"
       xlink:href="#path6-4"
       transform="matrix(-0.4520818,-0.98708775,0.98708775,-0.4520818,-937.01023,1428.818)" /><use
       id="use39"
       inkscape:spray-origin="#path6-4"
       xlink:href="#path6-4"
       transform="matrix(-0.64509408,0.7942966,-0.7942966,-0.64509408,777.47645,1623.5264)" /><use
       id="use40"
       inkscape:spray-origin="#path6-4"
       xlink:href="#path6-4"
       transform="matrix(0.79841072,-0.75303195,0.75303195,0.79841072,-558.99813,333.05478)" /><use
       id="use41"
       inkscape:spray-origin="#path6-4"
       xlink:href="#path6-4"
       transform="matrix(0.14810059,0.90152518,-0.90152518,0.14810059,797.36548,699.13871)" /><use
       id="use42"
       inkscape:spray-origin="#path6-4"
       xlink:href="#path6-4"
       transform="matrix(0.34118019,-0.98744565,0.98744565,0.34118019,-820.47735,668.66278)" /><use
       id="use43"
       inkscape:spray-origin="#path6-4"
       xlink:href="#path6-4"
       transform="matrix(-0.0689109,-0.98051429,0.98051429,-0.0689109,-799.38907,1122.2849)" /><use
       id="use44"
       inkscape:spray-origin="#path6"
       xlink:href="#path6"
       transform="matrix(0.32572424,-0.8539695,0.8539695,0.32572424,-770.96081,697.09457)" /><use
       id="use45"
       inkscape:spray-origin="#path6"
       xlink:href="#path6"
       transform="matrix(0.99808911,-0.39177326,0.39177326,0.99808911,-509.79654,136.82833)" /><use
       id="use46"
       inkscape:spray-origin="#path6"
       xlink:href="#path6"
       transform="matrix(0.27861475,-1.0156832,1.0156832,0.27861475,-770.84683,864.05246)" /><use
       id="use47"
       inkscape:spray-origin="#path6"
       xlink:href="#path6"
       transform="matrix(0.44708824,-0.86115816,0.86115816,0.44708824,-654.50082,615.84671)" /><use
       id="use48"
       inkscape:spray-origin="#path6"
       xlink:href="#path6"
       transform="matrix(0.14265103,-1.0021553,1.0021553,0.14265103,-795.18038,830.04578)" /></g></svg>
